<?xml version="1.0" encoding="iso-8859-1"?>
<!-- Generator: Adobe Illustrator 19.0.0, SVG Export Plug-In . SVG Version: 6.00 Build 0)  -->
<svg version="1.1" id="Layer_1" xmlns="http://www.w3.org/2000/svg" xmlns:xlink="http://www.w3.org/1999/xlink" x="0px" y="0px"
	 viewBox="0 0 512 512" style="enable-background:new 0 0 512 512;" xml:space="preserve">
<path d="M512,99.04V73.6c0-15.84-12.96-28.8-28.8-28.8H115.04H28.8C12.96,44.8,0,57.76,0,73.6v25.44H512z"/>
<g>
	<path style="opacity:0.25;fill:#FFFFFF;enable-background:new    ;" d="M147.04,44.8h-32H28.8C12.96,44.8,0,57.76,0,73.6v25.44
		h115.84L147.04,44.8z"/>
	<rect x="8" y="107.2" style="fill:#FFFFFF;" width="496" height="352"/>
</g>
<path style="fill:#EFEFEF;" d="M496,115.2v336H16v-336L496,115.2 M512,99.2H0v368h512V99.2L512,99.2z"/>
<path style="fill:#E0E0E0;" d="M488,123.2v320H24v-320L488,123.2 M492,119.2H20v328h472V119.2L492,119.2z"/>
<circle style="fill:#FF0000;" cx="40.48" cy="72" r="8.16"/>
<circle style="fill:#22ACDD;" cx="65.12" cy="72" r="8.16"/>
<g>
	<circle style="fill:#FFFFFF;" cx="89.6" cy="72" r="8.16"/>
	<path style="fill:#FFFFFF;" d="M428.32,86.4H170.88c-7.84,0-14.4-6.4-14.4-14.4l0,0c0-7.84,6.4-14.4,14.4-14.4h257.44
		c7.84,0,14.4,6.4,14.4,14.4l0,0C442.56,79.84,436.16,86.4,428.32,86.4z"/>
</g>
<path d="M180.64,65.44l1.92,7.52c0.48,1.6,0.8,3.2,1.12,4.8h0.16c0.32-1.44,0.8-3.04,1.28-4.64l2.4-7.52h2.24l2.24,7.52
	c0.48,1.76,0.96,3.36,1.28,4.8h0.16c0.32-1.44,0.64-3.04,1.12-4.8l2.08-7.52h2.72l-4.8,14.88h-2.4l-2.24-7.04
	c-0.48-1.6-0.96-3.2-1.28-4.96l0,0c-0.32,1.76-0.8,3.36-1.28,4.96l-2.4,7.04h-2.4l-4.48-14.88h2.56V65.44z"/>
<path d="M203.52,65.44l1.92,7.52c0.48,1.6,0.8,3.2,1.12,4.8h0.16c0.32-1.44,0.8-3.04,1.28-4.64l2.4-7.52h2.24l2.24,7.52
	c0.48,1.76,0.96,3.36,1.28,4.8h0.16c0.32-1.44,0.64-3.04,1.12-4.8l2.08-7.52h2.72l-4.8,14.88h-2.4l-2.24-7.36
	c-0.48-1.6-0.96-3.2-1.28-4.96l0,0c-0.32,1.76-0.8,3.36-1.28,4.96l-2.4,7.04h-2.4l-4.48-14.88h2.56V65.44z"/>
<path d="M226.56,65.44l1.92,7.52c0.48,1.6,0.8,3.2,1.12,4.8h0.16c0.32-1.44,0.8-3.04,1.28-4.64l2.4-7.52h2.24l2.24,7.52
	c0.48,1.76,0.96,3.36,1.28,4.8h0.16c0.32-1.44,0.64-3.04,1.12-4.8l2.08-7.52h2.72l-4.8,14.88h-2.4l-2.24-7.04
	c-0.48-1.6-0.96-3.2-1.28-4.96l0,0c-0.32,1.76-0.8,3.36-1.28,4.96l-2.4,7.04h-2.4L224,65.6h2.56V65.44z"/>
<path d="M246.24,78.72c0-1.12,0.8-1.92,1.92-1.92s1.76,0.8,1.76,1.92c0,1.12-0.64,1.92-1.92,1.92
	C246.88,80.64,246.24,79.84,246.24,78.72z"/>
<g>
	<rect x="461.28" y="70.4" style="fill:#FFFFFF;" width="23.04" height="4"/>
	<polygon style="fill:#FFFFFF;" points="474.56,84.32 471.68,81.44 480.8,72.32 471.68,63.2 474.56,60.48 486.56,72.32 	"/>
</g>
<polygon style="fill:#C9C9C9;" points="429.76,67.36 422.24,77.28 414.56,67.36 "/>
<g>
	<path style="fill:#F33052;" d="M94.4,172l10.24,39.36c2.24,8.64,4.32,16.64,5.76,24.64h0.48c1.76-7.84,4.32-16.16,6.88-24.48
		L130.4,172h11.84l12,38.72c2.88,9.28,5.12,17.44,6.88,25.28h0.48c1.28-7.84,3.36-16,5.92-25.12L178.56,172h13.92l-24.96,77.44
		h-12.8l-11.84-36.96c-2.72-8.64-4.96-16.32-6.88-25.44h-0.32c-1.92,9.28-4.32,17.28-7.04,25.6l-12.48,36.8h-12.8L80,172H94.4z"/>
	<path style="fill:#F33052;" d="M214.08,172l10.24,39.36c2.24,8.64,4.32,16.64,5.76,24.64h0.48c1.76-7.84,4.32-16.16,6.88-24.48
		L250.08,172h11.84l12,38.72c2.88,9.28,5.12,17.44,6.88,25.28h0.48c1.28-7.84,3.36-16,5.92-25.12L298.24,172h13.92l-24.96,77.44
		h-12.8l-11.84-36.96c-2.72-8.64-4.96-16.32-6.88-25.44h-0.32c-1.92,9.28-4.32,17.28-7.04,25.6l-12.48,36.8h-12.8L199.68,172
		L214.08,172L214.08,172z"/>
	<path style="fill:#F33052;" d="M333.92,172l10.24,39.36c2.24,8.64,4.32,16.64,5.76,24.64h0.48c1.76-7.84,4.32-16.16,6.88-24.48
		L369.92,172h11.84l12,38.72c2.88,9.28,5.12,17.44,6.88,25.28h0.48c1.28-7.84,3.36-16,5.92-25.12L418.08,172H432l-24.96,77.44h-12.8
		l-11.84-36.96c-2.72-8.64-4.96-16.32-6.88-25.44h-0.32c-1.92,9.28-4.32,17.28-7.04,25.6l-12.48,36.8h-12.8L319.52,172L333.92,172
		L333.92,172z"/>
</g>
<rect x="80" y="278.72" width="352" height="11.2"/>
<g>
	<rect x="191.84" y="318.24" style="fill:#22ACDD;" width="11.2" height="11.2"/>
	<rect x="214.24" y="385.44" style="fill:#22ACDD;" width="11.2" height="11.2"/>
	<rect x="80" y="318.24" style="fill:#22ACDD;" width="11.2" height="11.2"/>
	<rect x="102.4" y="318.24" style="fill:#22ACDD;" width="11.2" height="11.2"/>
	<rect x="124.8" y="318.24" style="fill:#22ACDD;" width="11.2" height="11.2"/>
	<rect x="147.04" y="318.24" style="fill:#22ACDD;" width="11.2" height="11.2"/>
	<rect x="169.44" y="318.24" style="fill:#22ACDD;" width="11.2" height="11.2"/>
	<rect x="214.24" y="318.24" style="fill:#22ACDD;" width="11.2" height="11.2"/>
	<rect x="236.64" y="318.24" style="fill:#22ACDD;" width="11.2" height="11.2"/>
	<rect x="258.88" y="318.24" style="fill:#22ACDD;" width="11.2" height="11.2"/>
	<rect x="281.28" y="318.24" style="fill:#22ACDD;" width="11.2" height="11.2"/>
	<rect x="303.68" y="318.24" style="fill:#22ACDD;" width="11.2" height="11.2"/>
</g>
<rect x="264.16" y="351.84" width="11.2" height="11.2"/>
<rect x="219.52" y="351.84" width="11.2" height="11.2"/>
<rect x="241.92" y="351.84" width="11.2" height="11.2"/>
<rect x="286.56" y="351.84" width="11.2" height="11.2"/>
<rect x="308.96" y="351.84" width="11.2" height="11.2"/>
<rect x="331.36" y="351.84" width="11.2" height="11.2"/>
<rect x="353.76" y="351.84" width="11.2" height="11.2"/>
<rect x="376" y="351.84" width="11.2" height="11.2"/>
<rect x="398.4" y="351.84" width="11.2" height="11.2"/>
<rect x="420.8" y="351.84" width="11.2" height="11.2"/>
<g>
	<rect x="80" y="385.44" style="fill:#22ACDD;" width="11.2" height="11.2"/>
	<rect x="102.4" y="385.44" style="fill:#22ACDD;" width="11.2" height="11.2"/>
	<rect x="124.8" y="385.44" style="fill:#22ACDD;" width="11.2" height="11.2"/>
	<rect x="147.04" y="385.44" style="fill:#22ACDD;" width="11.2" height="11.2"/>
	<rect x="169.44" y="385.44" style="fill:#22ACDD;" width="11.2" height="11.2"/>
	<rect x="191.84" y="385.44" style="fill:#22ACDD;" width="11.2" height="11.2"/>
	<rect x="236.64" y="385.44" style="fill:#22ACDD;" width="11.2" height="11.2"/>
	<rect x="258.88" y="385.44" style="fill:#22ACDD;" width="11.2" height="11.2"/>
	<rect x="281.28" y="385.44" style="fill:#22ACDD;" width="11.2" height="11.2"/>
</g>
<g>
</g>
<g>
</g>
<g>
</g>
<g>
</g>
<g>
</g>
<g>
</g>
<g>
</g>
<g>
</g>
<g>
</g>
<g>
</g>
<g>
</g>
<g>
</g>
<g>
</g>
<g>
</g>
<g>
</g>
</svg>
