<?xml version="1.0" encoding="iso-8859-1"?>
<!-- Generator: Adobe Illustrator 19.0.0, SVG Export Plug-In . SVG Version: 6.00 Build 0)  -->
<svg version="1.1" id="Layer_1" xmlns="http://www.w3.org/2000/svg" xmlns:xlink="http://www.w3.org/1999/xlink" x="0px" y="0px"
	 viewBox="0 0 512 512" style="enable-background:new 0 0 512 512;" xml:space="preserve">
<path d="M512,99.04V73.6c0-15.84-12.96-28.8-28.8-28.8H115.04H28.8C12.96,44.8,0,57.76,0,73.6v25.44H512z"/>
<g>
	<path style="opacity:0.25;fill:#FFFFFF;enable-background:new    ;" d="M147.04,44.8h-32H28.8C12.96,44.8,0,57.76,0,73.6v25.44
		h115.84L147.04,44.8z"/>
	<rect x="8" y="107.2" style="fill:#FFFFFF;" width="496" height="352"/>
</g>
<path style="fill:#EFEFEF;" d="M496,115.2v336H16v-336L496,115.2 M512,99.2H0v368h512V99.2L512,99.2z"/>
<path style="fill:#E0E0E0;" d="M488,123.2v320H24v-320L488,123.2 M492,119.2H20v328h472V119.2L492,119.2z"/>
<circle style="fill:#FF0000;" cx="40.48" cy="72" r="8.16"/>
<circle style="fill:#22ACDD;" cx="65.12" cy="72" r="8.16"/>
<g>
	<circle style="fill:#FFFFFF;" cx="89.6" cy="72" r="8.16"/>
	<path style="fill:#FFFFFF;" d="M428.32,86.4H170.88c-7.84,0-14.4-6.4-14.4-14.4l0,0c0-7.84,6.4-14.4,14.4-14.4h257.44
		c7.84,0,14.4,6.4,14.4,14.4l0,0C442.56,79.84,436.16,86.4,428.32,86.4z"/>
</g>
<path d="M180.64,65.44l1.92,7.52c0.48,1.6,0.8,3.2,1.12,4.8h0.16c0.32-1.44,0.8-3.04,1.28-4.64l2.4-7.52h2.24l2.24,7.52
	c0.48,1.76,0.96,3.36,1.28,4.8h0.16c0.32-1.44,0.64-3.04,1.12-4.8l2.08-7.52h2.72l-4.8,14.88h-2.4l-2.24-7.04
	c-0.48-1.6-0.96-3.2-1.28-4.96l0,0c-0.32,1.76-0.8,3.36-1.28,4.96l-2.4,7.04h-2.4l-4.48-14.88h2.56V65.44z"/>
<path d="M203.52,65.44l1.92,7.52c0.48,1.6,0.8,3.2,1.12,4.8h0.16c0.32-1.44,0.8-3.04,1.28-4.64l2.4-7.52h2.24l2.24,7.52
	c0.48,1.76,0.96,3.36,1.28,4.8h0.16c0.32-1.44,0.64-3.04,1.12-4.8l2.08-7.52h2.72l-4.8,14.88h-2.4l-2.24-7.36
	c-0.48-1.6-0.96-3.2-1.28-4.96l0,0c-0.32,1.76-0.8,3.36-1.28,4.96l-2.4,7.04h-2.4l-4.48-14.88h2.56V65.44z"/>
<path d="M226.56,65.44l1.92,7.52c0.48,1.6,0.8,3.2,1.12,4.8h0.16c0.32-1.44,0.8-3.04,1.28-4.64l2.4-7.52h2.24l2.24,7.52
	c0.48,1.76,0.96,3.36,1.28,4.8h0.16c0.32-1.44,0.64-3.04,1.12-4.8l2.08-7.52h2.72l-4.8,14.88h-2.4l-2.24-7.04
	c-0.48-1.6-0.96-3.2-1.28-4.96l0,0c-0.32,1.76-0.8,3.36-1.28,4.96l-2.4,7.04h-2.4L224,65.6h2.56V65.44z"/>
<path d="M246.24,78.72c0-1.12,0.8-1.92,1.92-1.92s1.76,0.8,1.76,1.92c0,1.12-0.64,1.92-1.92,1.92
	C246.88,80.64,246.24,79.84,246.24,78.72z"/>
<g>
	<rect x="461.28" y="70.4" style="fill:#FFFFFF;" width="23.04" height="4"/>
	<polygon style="fill:#FFFFFF;" points="474.56,84.32 471.68,81.44 480.8,72.32 471.68,63.2 474.56,60.48 486.56,72.32 	"/>
</g>
<polygon style="fill:#C9C9C9;" points="429.76,67.36 422.24,77.28 414.56,67.36 "/>
<g>
	<path style="fill:#22ACDD;" d="M448.32,321.6H63.68v-77.12h384.64V321.6z M74.88,310.56h362.24v-54.72H74.88V310.56z"/>
	<rect x="365.92" y="250.24" style="fill:#22ACDD;" width="76.96" height="65.92"/>
</g>
<g>
	<path style="fill:#F33052;" d="M116.16,294.08c1.28,0.8,3.52,1.6,5.6,1.6c3.04,0,4.48-1.6,4.48-3.52c0-2.08-1.12-3.04-4.32-4.32
		c-4.16-1.44-6.08-3.84-6.08-6.56c0-3.68,3.04-6.88,8-6.88c2.4,0,4.48,0.64,5.76,1.44l-1.12,3.04c-0.96-0.64-2.56-1.28-4.8-1.28
		c-2.56,0-3.84,1.44-3.84,3.2c0,1.92,1.44,2.72,4.48,4c4,1.6,6.08,3.52,6.08,7.04c0,4-3.2,6.88-8.64,6.88
		c-2.56,0-4.96-0.64-6.56-1.6L116.16,294.08z"/>
	<path style="fill:#F33052;" d="M138.08,287.68c0.16,5.76,3.68,8,8,8c3.04,0,4.8-0.48,6.4-1.28l0.64,3.04
		c-1.44,0.64-4,1.44-7.68,1.44c-7.2,0-11.36-4.64-11.36-11.68c0-7.04,4.16-12.48,10.88-12.48c7.52,0,9.6,6.72,9.6,10.88
		c0,0.8-0.16,1.6-0.16,1.92h-16.32V287.68z M150.4,284.64c0-2.72-1.12-6.88-5.92-6.88c-4.32,0-6.08,4-6.4,6.88H150.4z"/>
	<path style="fill:#F33052;" d="M172.48,298.4l-0.32-2.88H172c-1.28,1.76-3.84,3.52-7.04,3.52c-4.64,0-7.04-3.36-7.04-6.72
		c0-5.6,4.96-8.64,13.92-8.64v-0.48c0-1.92-0.48-5.44-5.28-5.44c-2.24,0-4.48,0.64-6.08,1.76l-0.96-2.72
		c1.92-1.28,4.64-2.08,7.68-2.08c7.04,0,8.8,4.8,8.8,9.44v8.64c0,2.08,0.16,4,0.32,5.6L172.48,298.4L172.48,298.4z M171.84,286.56
		c-4.64-0.16-9.76,0.64-9.76,5.28c0,2.72,1.76,4,4,4c3.04,0,4.96-1.92,5.6-3.84c0.16-0.48,0.16-0.96,0.16-1.28L171.84,286.56
		L171.84,286.56z"/>
	<path style="fill:#F33052;" d="M182.72,282.56c0-2.72,0-5.12-0.16-7.2h3.68l0.16,4.48h0.16c1.12-3.2,3.52-5.12,6.4-5.12
		c0.48,0,0.8,0,1.28,0.16v4c-0.48-0.16-0.8-0.16-1.44-0.16c-3.04,0-5.12,2.24-5.6,5.44c-0.16,0.64-0.16,1.28-0.16,1.92v12.32h-4.16
		v-15.84H182.72z"/>
	<path style="fill:#F33052;" d="M214.4,297.6c-1.12,0.64-3.52,1.28-6.72,1.28c-7.04,0-11.52-4.8-11.52-11.84
		c0-7.2,4.96-12.32,12.48-12.32c2.56,0,4.64,0.64,5.92,1.28l-0.96,3.2c-0.96-0.64-2.56-1.12-4.96-1.12c-5.28,0-8.16,4-8.16,8.8
		c0,5.44,3.52,8.64,8,8.64c2.4,0,4-0.64,5.12-1.12L214.4,297.6z"/>
	<path style="fill:#F33052;" d="M219.36,264.48h4.16v14.56h0.16c0.64-1.28,1.76-2.24,3.04-3.04c1.28-0.64,2.72-1.28,4.32-1.28
		c3.04,0,8.16,1.92,8.16,9.92v13.76h-4.16v-13.28c0-3.68-1.44-6.88-5.44-6.88c-2.72,0-4.96,1.92-5.6,4.16
		c-0.32,0.64-0.32,1.28-0.32,2.08v13.92h-4.16v-33.92H219.36z"/>
</g>
<g>
	<path style="fill:#FFFFFF;" d="M404.64,295.36c-9.76,0-17.6-8-17.6-17.6s8-17.6,17.6-17.6s17.6,8,17.6,17.6
		S414.4,295.36,404.64,295.36z M404.64,264c-7.52,0-13.6,6.08-13.6,13.6s6.08,13.6,13.6,13.6s13.6-6.08,13.6-13.6
		S412.16,264,404.64,264z"/>
	
		<rect x="411.087" y="295.624" transform="matrix(-0.6044 -0.7967 0.7967 -0.6044 437.3493 812.4052)" style="fill:#FFFFFF;" width="18.559" height="4"/>
</g>
<g>
</g>
<g>
</g>
<g>
</g>
<g>
</g>
<g>
</g>
<g>
</g>
<g>
</g>
<g>
</g>
<g>
</g>
<g>
</g>
<g>
</g>
<g>
</g>
<g>
</g>
<g>
</g>
<g>
</g>
</svg>
