<?xml version="1.0" encoding="iso-8859-1"?>
<!-- Generator: Adobe Illustrator 19.0.0, SVG Export Plug-In . SVG Version: 6.00 Build 0)  -->
<svg version="1.1" id="Layer_1" xmlns="http://www.w3.org/2000/svg" xmlns:xlink="http://www.w3.org/1999/xlink" x="0px" y="0px"
	 viewBox="0 0 512 512" style="enable-background:new 0 0 512 512;" xml:space="preserve">
<path d="M512,99.04V73.6c0-15.84-12.96-28.8-28.8-28.8H115.04H28.8C12.96,44.8,0,57.76,0,73.6v25.44H512z"/>
<g>
	<path style="opacity:0.25;fill:#FFFFFF;enable-background:new    ;" d="M147.04,44.8h-32H28.8C12.96,44.8,0,57.76,0,73.6v25.44
		h115.84L147.04,44.8z"/>
	<rect x="8" y="107.2" style="fill:#FFFFFF;" width="496" height="352"/>
</g>
<path style="fill:#EFEFEF;" d="M496,115.2v336H16v-336L496,115.2 M512,99.2H0v368h512V99.2L512,99.2z"/>
<path style="fill:#E0E0E0;" d="M488,123.2v320H24v-320L488,123.2 M492,119.2H20v328h472V119.2L492,119.2z"/>
<circle style="fill:#FF0000;" cx="40.48" cy="72" r="8.16"/>
<circle style="fill:#22ACDD;" cx="65.12" cy="72" r="8.16"/>
<g>
	<circle style="fill:#FFFFFF;" cx="89.6" cy="72" r="8.16"/>
	<path style="fill:#FFFFFF;" d="M428.32,86.4H170.88c-7.84,0-14.4-6.4-14.4-14.4l0,0c0-7.84,6.4-14.4,14.4-14.4h257.44
		c7.84,0,14.4,6.4,14.4,14.4l0,0C442.56,79.84,436.16,86.4,428.32,86.4z"/>
</g>
<path d="M180.64,65.44l1.92,7.52c0.48,1.6,0.8,3.2,1.12,4.8h0.16c0.32-1.44,0.8-3.04,1.28-4.64l2.4-7.52h2.24l2.24,7.52
	c0.48,1.76,0.96,3.36,1.28,4.8h0.16c0.32-1.44,0.64-3.04,1.12-4.8l2.08-7.52h2.72l-4.8,14.88h-2.4l-2.24-7.04
	c-0.48-1.6-0.96-3.2-1.28-4.96l0,0c-0.32,1.76-0.8,3.36-1.28,4.96l-2.4,7.04h-2.4l-4.48-14.88h2.56V65.44z"/>
<path d="M203.52,65.44l1.92,7.52c0.48,1.6,0.8,3.2,1.12,4.8h0.16c0.32-1.44,0.8-3.04,1.28-4.64l2.4-7.52h2.24l2.24,7.52
	c0.48,1.76,0.96,3.36,1.28,4.8h0.16c0.32-1.44,0.64-3.04,1.12-4.8l2.08-7.52h2.72l-4.8,14.88h-2.4l-2.24-7.36
	c-0.48-1.6-0.96-3.2-1.28-4.96l0,0c-0.32,1.76-0.8,3.36-1.28,4.96l-2.4,7.04h-2.4l-4.48-14.88h2.56V65.44z"/>
<path d="M226.56,65.44l1.92,7.52c0.48,1.6,0.8,3.2,1.12,4.8h0.16c0.32-1.44,0.8-3.04,1.28-4.64l2.4-7.52h2.24l2.24,7.52
	c0.48,1.76,0.96,3.36,1.28,4.8h0.16c0.32-1.44,0.64-3.04,1.12-4.8l2.08-7.52h2.72l-4.8,14.88h-2.4l-2.24-7.04
	c-0.48-1.6-0.96-3.2-1.28-4.96l0,0c-0.32,1.76-0.8,3.36-1.28,4.96l-2.4,7.04h-2.4L224,65.6h2.56V65.44z"/>
<path d="M246.24,78.72c0-1.12,0.8-1.92,1.92-1.92s1.76,0.8,1.76,1.92c0,1.12-0.64,1.92-1.92,1.92
	C246.88,80.64,246.24,79.84,246.24,78.72z"/>
<g>
	<rect x="461.28" y="70.4" style="fill:#FFFFFF;" width="23.04" height="4"/>
	<polygon style="fill:#FFFFFF;" points="474.56,84.32 471.68,81.44 480.8,72.32 471.68,63.2 474.56,60.48 486.56,72.32 	"/>
</g>
<polygon style="fill:#C9C9C9;" points="429.76,67.36 422.24,77.28 414.56,67.36 "/>
<path style="fill:#F33052;" d="M373.44,303.36v-34.72l-35.84-3.52c-2.08-7.52-5.12-14.4-9.12-20.8l23.04-27.84l-24.96-24.64
	l-29.44,23.68c-6.08-3.2-12.8-5.6-19.68-7.2l-3.84-38.24H256l0,0h-17.6l-3.84,38.24c-6.88,1.6-13.6,4-19.68,7.2l-29.44-23.68
	l-24.96,24.64l23.04,27.84c-4,6.4-7.2,13.44-9.12,20.8l-35.84,3.52v34.72l35.84,3.52c2.08,7.36,5.12,14.4,9.12,20.8l-23.2,28
	l24.96,24.64l29.44-23.68c6.08,3.2,12.8,5.6,19.68,7.2l3.84,38.24H256l0,0h17.6l3.84-38.24c6.88-1.6,13.6-4,19.68-7.2l29.44,23.68
	l24.96-24.64l-23.2-28c4-6.4,7.04-13.44,9.12-20.8L373.44,303.36z M256,338.24c-29.28,0-52.96-23.36-52.96-52.32
	c0-28.96,23.68-52.32,52.96-52.32s52.96,23.36,52.96,52.32S285.28,338.24,256,338.24z"/>
<path style="fill:#22ACDD;" d="M256,320.96c-19.52,0-35.36-15.68-35.36-35.04c0-19.36,15.84-35.04,35.36-35.04
	s35.36,15.68,35.36,35.04S275.52,320.96,256,320.96z M256,262.08c-13.28,0-24.16,10.72-24.16,23.84s10.88,23.84,24.16,23.84
	s24.16-10.72,24.16-23.84S269.28,262.08,256,262.08z"/>
<g>
</g>
<g>
</g>
<g>
</g>
<g>
</g>
<g>
</g>
<g>
</g>
<g>
</g>
<g>
</g>
<g>
</g>
<g>
</g>
<g>
</g>
<g>
</g>
<g>
</g>
<g>
</g>
<g>
</g>
</svg>
