<?xml version="1.0" encoding="iso-8859-1"?>
<!-- Generator: Adobe Illustrator 19.0.0, SVG Export Plug-In . SVG Version: 6.00 Build 0)  -->
<svg version="1.1" id="Layer_1" xmlns="http://www.w3.org/2000/svg" xmlns:xlink="http://www.w3.org/1999/xlink" x="0px" y="0px"
	 viewBox="0 0 512 512" style="enable-background:new 0 0 512 512;" xml:space="preserve">
<path d="M512,99.04V73.6c0-15.84-12.96-28.8-28.8-28.8H115.04H28.8C12.96,44.8,0,57.76,0,73.6v25.44H512z"/>
<g>
	<path style="opacity:0.25;fill:#FFFFFF;enable-background:new    ;" d="M147.04,44.8h-32H28.8C12.96,44.8,0,57.76,0,73.6v25.44
		h115.84L147.04,44.8z"/>
	<rect x="8" y="107.2" style="fill:#FFFFFF;" width="496" height="352"/>
</g>
<path style="fill:#EFEFEF;" d="M496,115.2v336H16v-336L496,115.2 M512,99.2H0v368h512V99.2L512,99.2z"/>
<path style="fill:#E0E0E0;" d="M488,123.2v320H24v-320L488,123.2 M492,119.2H20v328h472V119.2L492,119.2z"/>
<circle style="fill:#FF0000;" cx="40.48" cy="72" r="8.16"/>
<circle style="fill:#22ACDD;" cx="65.12" cy="72" r="8.16"/>
<g>
	<circle style="fill:#FFFFFF;" cx="89.6" cy="72" r="8.16"/>
	<path style="fill:#FFFFFF;" d="M428.32,86.4H170.88c-7.84,0-14.4-6.4-14.4-14.4l0,0c0-7.84,6.4-14.4,14.4-14.4h257.44
		c7.84,0,14.4,6.4,14.4,14.4l0,0C442.56,79.84,436.16,86.4,428.32,86.4z"/>
</g>
<path d="M180.64,65.44l1.92,7.52c0.48,1.6,0.8,3.2,1.12,4.8h0.16c0.32-1.44,0.8-3.04,1.28-4.64l2.4-7.52h2.24l2.24,7.52
	c0.48,1.76,0.96,3.36,1.28,4.8h0.16c0.32-1.44,0.64-3.04,1.12-4.8l2.08-7.52h2.72l-4.8,14.88h-2.4l-2.24-7.04
	c-0.48-1.6-0.96-3.2-1.28-4.96l0,0c-0.32,1.76-0.8,3.36-1.28,4.96l-2.4,7.04h-2.4l-4.48-14.88h2.56V65.44z"/>
<path d="M203.52,65.44l1.92,7.52c0.48,1.6,0.8,3.2,1.12,4.8h0.16c0.32-1.44,0.8-3.04,1.28-4.64l2.4-7.52h2.24l2.24,7.52
	c0.48,1.76,0.96,3.36,1.28,4.8h0.16c0.32-1.44,0.64-3.04,1.12-4.8l2.08-7.52h2.72l-4.8,14.88h-2.4l-2.24-7.36
	c-0.48-1.6-0.96-3.2-1.28-4.96l0,0c-0.32,1.76-0.8,3.36-1.28,4.96l-2.4,7.04h-2.4l-4.48-14.88h2.56V65.44z"/>
<path d="M226.56,65.44l1.92,7.52c0.48,1.6,0.8,3.2,1.12,4.8h0.16c0.32-1.44,0.8-3.04,1.28-4.64l2.4-7.52h2.24l2.24,7.52
	c0.48,1.76,0.96,3.36,1.28,4.8h0.16c0.32-1.44,0.64-3.04,1.12-4.8l2.08-7.52h2.72l-4.8,14.88h-2.4l-2.24-7.04
	c-0.48-1.6-0.96-3.2-1.28-4.96l0,0c-0.32,1.76-0.8,3.36-1.28,4.96l-2.4,7.04h-2.4L224,65.6h2.56V65.44z"/>
<path d="M246.24,78.72c0-1.12,0.8-1.92,1.92-1.92s1.76,0.8,1.76,1.92c0,1.12-0.64,1.92-1.92,1.92
	C246.88,80.64,246.24,79.84,246.24,78.72z"/>
<g>
	<rect x="461.28" y="70.4" style="fill:#FFFFFF;" width="23.04" height="4"/>
	<polygon style="fill:#FFFFFF;" points="474.56,84.32 471.68,81.44 480.8,72.32 471.68,63.2 474.56,60.48 486.56,72.32 	"/>
</g>
<polygon style="fill:#C9C9C9;" points="429.76,67.36 422.24,77.28 414.56,67.36 "/>
<rect x="376.608" y="329.807" transform="matrix(-0.7071 0.7071 -0.7071 -0.7071 916.9577 336.5966)" width="24.32" height="56.799"/>
<polygon points="342.08,364.8 331.04,301.28 394.56,312.32 "/>
<path style="fill:#F33052;" d="M371.52,294.88H114.24c-10.88,0-19.84-8.8-19.84-19.84V201.6c0-10.88,8.8-19.84,19.84-19.84h257.28
	c10.88,0,19.84,8.8,19.84,19.84v73.44C391.36,286.08,382.4,294.88,371.52,294.88z M114.24,193.76c-4.32,0-7.84,3.52-7.84,7.84v73.44
	c0,4.32,3.52,7.84,7.84,7.84h257.28c4.32,0,7.84-3.52,7.84-7.84V201.6c0-4.32-3.52-7.84-7.84-7.84L114.24,193.76L114.24,193.76z"/>
<g>
	<path style="fill:#22ACDD;" d="M138.24,213.6l6.56,25.12c1.44,5.44,2.72,10.56,3.68,15.68h0.32c1.12-4.96,2.72-10.24,4.32-15.68
		l8-25.28h7.52l7.68,24.64c1.92,5.92,3.2,11.2,4.32,16.16h0.32c0.8-4.96,2.08-10.24,3.84-16l7.2-24.64h8.8l-16,49.44h-8.16
		l-7.52-23.52c-1.76-5.44-3.2-10.4-4.32-16.16h-0.16c-1.28,5.92-2.72,11.04-4.48,16.32l-8,23.52H144l-14.88-49.44h9.12V213.6z"/>
	<path style="fill:#22ACDD;" d="M214.72,213.6l6.56,25.12c1.44,5.44,2.72,10.56,3.68,15.68h0.32c1.12-4.96,2.72-10.24,4.32-15.68
		l8-25.28h7.52l7.68,24.64c1.92,5.92,3.2,11.2,4.32,16.16h0.32c0.8-4.96,2.08-10.24,3.84-16l7.04-24.8h8.8l-16,49.44h-8.16
		l-7.52-23.52c-1.76-5.44-3.2-10.4-4.32-16.16h-0.16c-1.28,5.92-2.72,11.04-4.48,16.32l-8,23.52h-8.16l-14.88-49.44L214.72,213.6
		L214.72,213.6z"/>
	<path style="fill:#22ACDD;" d="M291.04,213.6l6.56,25.12c1.44,5.44,2.72,10.56,3.68,15.68h0.32c1.12-4.96,2.72-10.24,4.32-15.68
		l8-25.28h7.52l7.68,24.64c1.92,5.92,3.2,11.2,4.32,16.16h0.32c0.8-4.96,2.08-10.24,3.84-16l7.04-24.8h8.8l-16,49.44h-7.84
		l-7.52-23.52c-1.76-5.44-3.2-10.4-4.32-16.16h-0.16c-1.28,5.92-2.72,11.04-4.48,16.32l-8,23.52h-8.16l-14.88-49.44L291.04,213.6
		L291.04,213.6z"/>
</g>
<g>
</g>
<g>
</g>
<g>
</g>
<g>
</g>
<g>
</g>
<g>
</g>
<g>
</g>
<g>
</g>
<g>
</g>
<g>
</g>
<g>
</g>
<g>
</g>
<g>
</g>
<g>
</g>
<g>
</g>
</svg>
